<svg width="214" height="175" fill="none" xmlns="http://www.w3.org/2000/svg"><path d="M170.654 61.586c3.648-10.029 6.261-21.98 7.312-36.22 0 0-29.169 6.807-50.627 26.418-1.82-14.89-8.002-32.228-21.582-51.776 0 0-18.304 23.524-22.69 52.16-21.487-19.908-51.042-26.8-51.042-26.8 1.051 14.24 3.672 26.19 7.312 36.22-19.912-2.063-36.395 1.277-36.395 1.277 42.2 76.634 102.053 50.632 102.053 50.632a16.979 16.979 0 00-.094-.361c.055.047.102.094.157.134-.015.078-.039.149-.063.227 0 0 .204.086.597.243.055.047.11.102.165.149 0 0 .023-.023.062-.055 7.336 2.768 61.932 20.396 101.23-50.96 0 0-16.483-3.341-36.395-1.28v-.007zm-2.212-24.802c-.738 10.021-2.511 18.529-4.967 25.774-12.858 2.173-26.447 6.87-37.579 16.24 1.428-5.928 2.236-12.562 2-19.87 16.358-16.498 40.546-22.152 40.546-22.152v.008zM113.265 91.79c.321-10.413 3.805-19.023 8.888-26.096a55.05 55.05 0 01-8.888 26.096zm47.7-22.787c-12.082 27.28-34.724 33.146-43.323 34.4 7.61-23.022 26.353-31.6 43.323-34.4zM122.153 56.96c-9.987 10.923-17.252 25.202-17.158 43.574h-.007c.094-18.262-7.093-32.47-16.986-43.37 2.472-22.92 17.535-42.289 17.535-42.289 11.172 16.09 15.738 30.197 16.616 42.093v-.008zm-34.449 8.562c5.1 7.05 8.622 15.636 8.999 26.018-6.104-8.367-8.646-17.306-8.999-26.018zm-46.17-28.746s24.391 5.7 40.749 22.356c-.424 6.32-.07 12.813 1.357 19.29-11.046-9.128-24.454-13.73-37.14-15.871-2.464-7.246-4.229-15.762-4.966-25.775zm50.799 66.62c-8.599-1.254-31.233-7.127-43.323-34.4 16.97 2.8 35.713 11.378 43.323 34.4zM16.35 69.278s11.43-2.32 25.623-1.144c11.321 25.43 29.6 36.729 43.338 41.739-14.53 2.682-45.386 2.212-68.953-40.595h-.008zm108.322 40.595c13.737-5.018 32.009-16.318 43.338-41.74 14.192-1.176 25.623 1.145 25.623 1.145-23.575 42.807-54.424 43.277-68.953 40.595h-.008z" fill="#C7A78A"/><path d="M0 132.904h6.017v16.427H16.53v5.27H0v-21.697zm17.119 10.907v-.063c0-6.234 5.02-11.284 11.72-11.284 6.7 0 11.667 4.995 11.667 11.221v.063c0 6.234-5.021 11.284-11.721 11.284s-11.666-4.995-11.666-11.221zm17.244 0v-.063c0-3.129-2.267-5.857-5.586-5.857-3.319 0-5.492 2.666-5.492 5.794v.063c0 3.129 2.268 5.858 5.555 5.858s5.523-2.666 5.523-5.795zm13.643-5.638h-6.511v-5.269h19.04v5.269h-6.511v16.428h-6.018v-16.428zm14.891 6.916v-12.185h6.111v12.06c0 3.128 1.585 4.618 4.002 4.618 2.416 0 4-1.427 4-4.462v-12.216h6.112v12.028c0 7.003-4 10.076-10.175 10.076-6.175 0-10.05-3.128-10.05-9.919zm22.14 6.289l3.35-3.999c2.141 1.701 4.526 2.603 7.037 2.603 1.616 0 2.48-.557 2.48-1.49v-.063c0-.901-.715-1.395-3.665-2.078-4.62-1.05-8.19-2.352-8.19-6.822v-.062c0-4.031 3.193-6.948 8.402-6.948 3.695 0 6.575.996 8.936 2.886l-3.005 4.25c-1.985-1.396-4.158-2.141-6.08-2.141-1.46 0-2.173.62-2.173 1.396v.063c0 .988.745 1.427 3.75 2.109 4.998 1.082 8.097 2.697 8.097 6.759v.063c0 4.43-3.507 7.065-8.78 7.065-3.844 0-7.507-1.207-10.175-3.599l.016.008zm29.71-7.567v-.063c0-6.32 4.967-11.284 11.69-11.284 3.813 0 6.512 1.177 8.811 3.16l-3.539 4.25c-1.553-1.301-3.099-2.046-5.241-2.046-3.13 0-5.554 2.635-5.554 5.951v.063c0 3.505 2.448 6.015 5.892 6.015 1.459 0 2.573-.314 3.475-.902v-2.635h-4.283v-4.399h9.987v9.763c-2.291 1.889-5.492 3.348-9.43 3.348-6.763 0-11.815-4.65-11.815-11.221h.007zm24.596-10.907h6.017v16.427h10.513v5.27h-16.53v-21.697zm17.119 10.907v-.063c0-6.234 5.028-11.284 11.729-11.284 6.7 0 11.666 4.995 11.666 11.221v.063c0 6.234-5.029 11.284-11.721 11.284-6.693 0-11.667-4.995-11.667-11.221h-.007zm17.244 0v-.063c0-3.129-2.267-5.857-5.586-5.857-3.319 0-5.492 2.666-5.492 5.794v.063c0 3.129 2.267 5.858 5.555 5.858 3.287 0 5.523-2.666 5.523-5.795zm6.574-10.907h6.363l3.781 12.554 4.19-12.617h5.178l4.189 12.617 3.782-12.554H214l-7.257 21.853h-5.241l-4.378-12.491-4.346 12.491h-5.241l-7.257-21.853zM6.34 167.28H1.874v2.627H5.86v.76H1.875v3.208h-.832v-7.364H6.34v.769zm6.299-.769v7.364h-.832v-7.364h.832zm11.368 0h.808v7.364h-.667l-4.754-6.038v6.038h-.808v-7.364h.777l4.644 5.905v-5.905zm12.867 5.129a3.316 3.316 0 01-.809 1.176 3.78 3.78 0 01-1.24.776 4.32 4.32 0 01-1.584.283h-2.558v-7.364h2.558a4.32 4.32 0 011.585.283 3.78 3.78 0 011.24.776c.345.329.611.721.808 1.168.188.447.282.934.282 1.451 0 .518-.094 1.004-.282 1.459v-.008zm-.793-2.58a2.72 2.72 0 00-1.577-1.553 3.417 3.417 0 00-1.263-.227h-1.726v5.826h1.726c.463 0 .887-.071 1.263-.22.377-.148.699-.352.965-.619a2.94 2.94 0 00.612-.917c.141-.353.212-.73.212-1.145 0-.416-.07-.792-.212-1.145zm16.711 4.815h-.832v-2.917l-3.06-4.447h1.013l2.479 3.686 2.502-3.686h.965l-3.06 4.439v2.925h-.007zm14.467-2.235c-.18.462-.44.862-.769 1.215-.33.353-.73.627-1.192.839a3.64 3.64 0 01-1.538.314 3.7 3.7 0 01-2.715-1.129 3.712 3.712 0 01-.76-1.208 3.947 3.947 0 01-.267-1.458c0-.51.094-.996.274-1.459.18-.455.44-.862.769-1.215.33-.353.73-.628 1.193-.839a3.766 3.766 0 011.537-.314 3.7 3.7 0 012.715 1.129c.33.345.58.753.76 1.208.181.455.267.949.267 1.458 0 .51-.094.996-.274 1.459zm-.808-2.627a2.837 2.837 0 00-.604-.965 2.826 2.826 0 00-.918-.65 2.723 2.723 0 00-1.161-.244c-.416 0-.808.079-1.161.236a2.717 2.717 0 00-.91.651 3.014 3.014 0 00-.597.964 3.274 3.274 0 00-.212 1.184c0 .423.071.816.212 1.192.142.368.346.69.604.964.26.275.565.494.918.651.353.165.746.243 1.161.243a2.85 2.85 0 001.162-.235c.353-.157.659-.376.91-.651a3.17 3.17 0 00.816-2.148c0-.424-.071-.816-.22-1.192zm12.647 1.717c0 .541-.07 1.012-.22 1.419a2.737 2.737 0 01-.628 1.02 2.537 2.537 0 01-.965.611 3.712 3.712 0 01-1.255.204c-.463 0-.87-.07-1.247-.204a2.478 2.478 0 01-.965-.611 2.773 2.773 0 01-.628-1.004c-.149-.4-.22-.862-.22-1.38v-4.281h.832v4.226c0 .8.196 1.412.596 1.843.4.431.95.643 1.656.643s1.224-.204 1.624-.612c.4-.408.596-1.011.596-1.819v-4.281h.832v4.218l-.008.008zm10.834 3.145l-2.134-2.863h-2.102v2.863h-.832v-7.364h3.17c.408 0 .776.055 1.098.157.33.102.604.251.84.447.235.196.407.424.533.698.126.267.188.573.188.902 0 .306-.047.588-.149.823a1.937 1.937 0 01-.416.635c-.18.181-.392.33-.635.447a2.88 2.88 0 01-.8.251l2.26 3.004h-1.02zm-.573-6.211c-.329-.259-.792-.384-1.396-.384H85.68v2.995h2.267c.275 0 .526-.031.761-.102.236-.07.432-.172.605-.298.164-.133.298-.29.392-.478.094-.188.14-.408.14-.643 0-.463-.164-.823-.493-1.082l.007-.008zm14.75-1.153v7.364h-.832v-7.364h.832zm11.368 0h.808v7.364h-.659l-4.754-6.038v6.038h-.808v-7.364h.776l4.645 5.905v-5.905h-.008zm12.098 0h.808v7.364h-.659l-4.755-6.038v6.038h-.808v-7.364h.777l4.645 5.905v-5.905h-.008zm12.011.753h-4.495v2.517h4.016v.761h-4.016v2.58h4.542v.76h-5.374v-7.363h5.327v.761-.016zm10.584 6.611l-2.134-2.863h-2.103v2.863h-.832v-7.364h3.17c.408 0 .777.055 1.098.157.33.102.604.251.84.447.235.196.408.424.533.698.126.267.189.573.189.902 0 .306-.048.588-.15.823a1.941 1.941 0 01-.415.635c-.181.181-.393.33-.636.447-.243.118-.51.204-.8.251l2.259 3.004h-1.019zm-.573-6.211c-.33-.259-.793-.384-1.397-.384h-2.283v2.995h2.268c.274 0 .525-.031.761-.102a1.96 1.96 0 00.604-.298c.164-.133.298-.29.392-.478.094-.188.141-.408.141-.643 0-.463-.165-.823-.494-1.082l.008-.008zm13.847-1.153h.832v6.595h4.15v.769h-4.974v-7.364h-.008zm11.211 0v7.364h-.831v-7.364h.831zm11.054 7.16a4.184 4.184 0 01-1.686.329 3.934 3.934 0 01-1.562-.298 3.452 3.452 0 01-1.922-2.015 4.222 4.222 0 01-.259-1.482c0-.526.087-.988.267-1.451a3.92 3.92 0 01.753-1.223 3.683 3.683 0 011.161-.839 3.655 3.655 0 011.515-.314c.305 0 .588.024.847.063s.494.102.714.188c.219.086.423.188.62.314.196.125.384.259.564.415l-.533.628a4.368 4.368 0 00-.439-.345 3.337 3.337 0 00-.503-.267 2.703 2.703 0 00-.588-.172 3.895 3.895 0 00-.714-.063c-.408 0-.784.078-1.13.243a2.82 2.82 0 00-.886.651 3.152 3.152 0 00-.581.964 3.267 3.267 0 00-.212 1.176c0 .44.071.855.204 1.231a2.729 2.729 0 001.507 1.616c.361.157.761.227 1.208.227.424 0 .816-.07 1.192-.219.369-.141.683-.322.934-.526v-1.835h-2.244v-.737h3.044v2.925a4.786 4.786 0 01-1.271.792v.024zm7.759-3.113v3.317h-.831v-7.364h.831v3.27h4.253v-3.27h.831v7.364h-.831v-3.317h-4.253zm13.738 3.317h-.832v-6.595h-2.471v-.769h5.782v.769h-2.471v6.595h-.008z" fill="#fff"/></svg>