<svg width="155" height="127" fill="none" xmlns="http://www.w3.org/2000/svg"><path d="M123.605 44.597c2.642-7.263 4.534-15.916 5.296-26.228 0 0-21.128 4.929-36.67 19.13C90.914 26.716 86.437 14.161 76.6.006c0 0-13.257 17.034-16.433 37.771C44.602 23.36 23.196 18.37 23.196 18.37c.761 10.312 2.66 18.965 5.296 26.228-14.422-1.494-26.361.925-26.361.925 30.566 55.494 73.917 36.665 73.917 36.665l-.068-.261c.04.034.074.068.114.096-.012.057-.029.108-.046.165 0 0 .148.062.432.176.04.034.08.074.12.108 0 0 .016-.017.045-.04 5.313 2.004 44.857 14.769 73.32-36.903 0 0-11.938-2.419-26.36-.925v-.006zm-1.603-17.96c-.534 7.256-1.818 13.417-3.597 18.664-9.313 1.573-19.155 4.974-27.219 11.76 1.034-4.293 1.62-9.097 1.45-14.39 11.847-11.946 29.366-16.04 29.366-16.04v.006zM82.037 66.469c.233-7.54 2.756-13.775 6.439-18.897a39.85 39.85 0 01-6.439 18.897zm34.55-16.5c-8.751 19.754-25.15 24.001-31.379 24.91 5.512-16.671 19.088-22.883 31.379-24.91zm-28.111-8.722c-7.234 7.91-12.496 18.25-12.428 31.554h-.005c.068-13.225-5.138-23.514-12.303-31.407 1.79-16.597 12.7-30.622 12.7-30.622 8.092 11.651 11.4 21.867 12.036 30.48v-.005zm-24.952 6.2c3.694 5.105 6.245 11.323 6.518 18.84-4.421-6.058-6.262-12.531-6.518-18.84zM30.083 26.631S47.75 30.759 59.597 42.82c-.306 4.576-.05 9.278.983 13.968-8-6.61-17.712-9.943-26.9-11.493-1.784-5.246-3.063-11.413-3.597-18.664zm36.794 48.242c-6.228-.908-22.622-5.161-31.379-24.91 12.291 2.027 25.867 8.239 31.379 24.91zM11.842 50.167s8.28-1.68 18.56-.829C38.6 67.753 51.84 75.935 61.79 79.563c-10.524 1.942-32.873 1.602-49.943-29.396h-.006zM90.3 79.563c9.95-3.634 23.184-11.816 31.39-30.225 10.279-.852 18.558.83 18.558.83-17.075 30.997-39.419 31.337-49.943 29.395H90.3z" fill="#C7A78A"/><path d="M0 96.24h4.358v11.896h7.615v3.816H0V96.24zm12.4 7.899v-.046c0-4.514 3.636-8.17 8.489-8.17 4.852 0 8.45 3.616 8.45 8.125v.045c0 4.515-3.637 8.171-8.49 8.171s-8.45-3.617-8.45-8.125zm12.49 0v-.046c0-2.265-1.643-4.241-4.047-4.241s-3.977 1.93-3.977 4.196v.045c0 2.266 1.642 4.242 4.023 4.242 2.38 0 4-1.931 4-4.196zm9.88-4.083h-4.716V96.24h13.792v3.816h-4.717v11.896h-4.358v-11.896zm10.786 5.008V96.24h4.427v8.734c0 2.265 1.148 3.344 2.898 3.344 1.75 0 2.898-1.033 2.898-3.231V96.24h4.426v8.711c0 5.07-2.898 7.296-7.37 7.296-4.472 0-7.279-2.265-7.279-7.183zm16.036 4.554l2.426-2.896c1.552 1.233 3.28 1.886 5.098 1.886 1.17 0 1.795-.404 1.795-1.079v-.046c0-.653-.517-1.01-2.654-1.504-3.346-.761-5.932-1.704-5.932-4.941v-.045c0-2.918 2.313-5.03 6.086-5.03 2.676 0 4.762.72 6.472 2.089l-2.176 3.077c-1.438-1.01-3.012-1.55-4.404-1.55-1.057 0-1.574.449-1.574 1.011v.045c0 .716.54 1.034 2.716 1.528 3.62.783 5.864 1.953 5.864 4.894v.046c0 3.208-2.54 5.116-6.358 5.116-2.785 0-5.438-.875-7.37-2.606l.011.005zm21.519-5.479v-.046c0-4.576 3.597-8.17 8.467-8.17 2.762 0 4.717.851 6.382 2.288l-2.563 3.077c-1.125-.942-2.245-1.482-3.796-1.482-2.267 0-4.023 1.908-4.023 4.31v.046c0 2.538 1.773 4.355 4.267 4.355 1.057 0 1.864-.227 2.518-.653v-1.908H91.26v-3.186h7.234v7.07c-1.66 1.368-3.978 2.424-6.83 2.424-4.899 0-8.558-3.367-8.558-8.125h.005zm17.815-7.899h4.358v11.896h7.615v3.816h-11.973V96.24zm12.399 7.899v-.046c0-4.514 3.642-8.17 8.495-8.17s8.45 3.616 8.45 8.125v.045c0 4.515-3.642 8.171-8.49 8.171-4.847 0-8.449-3.617-8.449-8.125h-.006zm12.49 0v-.046c0-2.265-1.642-4.241-4.046-4.241-2.404 0-3.978 1.93-3.978 4.196v.045c0 2.266 1.643 4.242 4.024 4.242 2.38 0 4-1.931 4-4.196zm4.762-7.899h4.608l2.739 9.091 3.035-9.136h3.75l3.035 9.136 2.738-9.09H155l-5.256 15.825h-3.796l-3.171-9.046-3.148 9.046h-3.796l-5.256-15.826zM4.591 121.134H1.358v1.902h2.887v.551H1.358v2.322H.756v-5.332H4.59v.557zm4.563-.557v5.332h-.602v-5.332h.602zm8.234 0h.586v5.332h-.483l-3.444-4.372v4.372h-.585v-5.332h.562l3.364 4.276v-4.276zm9.319 3.714c-.136.329-.33.613-.585.852-.25.238-.551.425-.898.562a3.132 3.132 0 01-1.148.204h-1.852v-5.332h1.852c.415 0 .802.068 1.148.205.347.136.648.323.898.562.25.238.443.522.585.846.137.324.205.676.205 1.05 0 .375-.068.727-.204 1.057v-.006zm-.573-1.868a1.978 1.978 0 00-1.142-1.125 2.494 2.494 0 00-.916-.164h-1.25v4.219h1.25c.336 0 .643-.051.915-.159a2.03 2.03 0 00.7-.449 2.12 2.12 0 00.443-.664 2.2 2.2 0 00.153-.829 2.2 2.2 0 00-.153-.829zm12.103 3.486h-.602v-2.112l-2.216-3.22h.733l1.795 2.669 1.813-2.669h.699l-2.216 3.214v2.118h-.006zm10.479-1.618a2.702 2.702 0 01-1.42 1.488 2.645 2.645 0 01-1.115.227 2.676 2.676 0 01-1.966-.818 2.691 2.691 0 01-.551-.874 2.86 2.86 0 01-.193-1.057 2.799 2.799 0 01.756-1.936 2.697 2.697 0 011.977-.835 2.676 2.676 0 011.966.818c.239.25.42.545.551.875.131.329.194.687.194 1.056s-.069.721-.2 1.056zm-.586-1.902a2.052 2.052 0 00-.437-.699 2.04 2.04 0 00-.665-.471 1.98 1.98 0 00-.841-.176 2.07 2.07 0 00-.841.17 1.976 1.976 0 00-.66.472 2.187 2.187 0 00-.431.698 2.368 2.368 0 00-.154.857c0 .307.052.591.154.863.102.267.25.5.437.699a2.053 2.053 0 001.506.647 1.986 1.986 0 001.5-.641 2.3 2.3 0 00.591-1.556c0-.307-.05-.591-.159-.863zm9.16 1.243c0 .392-.05.733-.159 1.028a1.983 1.983 0 01-.454.738 1.84 1.84 0 01-.7.443 2.69 2.69 0 01-.908.148c-.336 0-.631-.051-.904-.148a1.797 1.797 0 01-.699-.443 2.003 2.003 0 01-.455-.727 2.854 2.854 0 01-.159-.999v-3.1h.603v3.06c0 .579.142 1.022.432 1.335.29.312.687.465 1.199.465.511 0 .886-.147 1.176-.443.29-.295.432-.732.432-1.317v-3.1h.602v3.055l-.006.005zm7.848 2.277l-1.546-2.072H62.07v2.072h-.602v-5.332h2.296c.295 0 .562.04.795.114.239.074.438.182.608.324.17.141.296.306.387.505.09.193.136.414.136.653 0 .221-.034.426-.108.596a1.41 1.41 0 01-.301.46c-.13.131-.284.239-.46.324-.176.085-.37.147-.58.181l1.637 2.175h-.74zm-.415-4.497c-.239-.187-.574-.278-1.011-.278h-1.654v2.169H63.7c.2 0 .38-.023.551-.074.17-.051.313-.125.438-.216.12-.096.216-.21.284-.346a1.04 1.04 0 00.102-.466c0-.335-.119-.596-.358-.783l.006-.006zm10.683-.835v5.332h-.602v-5.332h.602zm8.234 0h.585v5.332h-.477l-3.444-4.372v4.372h-.585v-5.332h.563l3.364 4.276v-4.276h-.006zm8.762 0h.585v5.332h-.477l-3.443-4.372v4.372h-.586v-5.332h.563l3.364 4.276v-4.276h-.006zm8.7.545h-3.256v1.823h2.909v.551h-2.909v1.868h3.29v.551h-3.892v-5.332h3.858v.551-.012zm7.666 4.787l-1.546-2.072h-1.523v2.072h-.602v-5.332h2.295c.296 0 .563.04.796.114.239.074.438.182.608.324.171.141.296.306.386.505.091.193.137.414.137.653 0 .221-.034.426-.108.596a1.422 1.422 0 01-.301.46 1.663 1.663 0 01-.461.324 2.096 2.096 0 01-.579.181l1.636 2.175h-.738zm-.415-4.497c-.239-.187-.574-.278-1.012-.278h-1.653v2.169h1.642c.199 0 .381-.023.551-.074.171-.051.313-.125.438-.216.119-.096.216-.21.284-.346a1.04 1.04 0 00.102-.466c0-.335-.119-.596-.358-.783l.006-.006zm10.029-.835h.603v4.776h3.006v.556h-3.603v-5.332h-.006zm8.121 0v5.332h-.603v-5.332h.603zm8.006 5.185a3.028 3.028 0 01-1.222.238c-.42 0-.801-.074-1.13-.216a2.504 2.504 0 01-1.393-1.459 3.045 3.045 0 01-.187-1.073 2.8 2.8 0 01.193-1.051c.131-.335.313-.63.546-.886.233-.255.517-.454.841-.607a2.639 2.639 0 011.096-.227c.222 0 .426.017.614.045a2.43 2.43 0 01.966.364c.142.09.278.187.409.301l-.386.454a3.317 3.317 0 00-.318-.25 2.466 2.466 0 00-.364-.193 1.937 1.937 0 00-.426-.125 2.919 2.919 0 00-.517-.045c-.296 0-.569.056-.819.176-.25.119-.46.272-.642.471a2.346 2.346 0 00-.574 1.55c0 .318.051.619.148.892a1.987 1.987 0 001.091 1.169c.261.114.551.165.875.165.307 0 .591-.051.864-.159.267-.102.494-.233.676-.381v-1.328h-1.625v-.534h2.205v2.118a3.49 3.49 0 01-.921.573v.018zm5.62-2.255v2.402h-.602v-5.332h.602v2.368h3.08v-2.368h.602v5.332h-.602v-2.402h-3.08zm9.95 2.402h-.602v-4.775h-1.79v-.557h4.188v.557h-1.79v4.775h-.006z" fill="#fff"/></svg>