<svg width="87" height="69" fill="none" xmlns="http://www.w3.org/2000/svg"><path d="M0 20C0 8.954 8.954 0 20 0h59.333A7.667 7.667 0 0187 7.667C87 41.54 59.54 69 25.667 69H0V20z" fill="#9A816B"/><path d="M40.562 23.563c1.198.233 2.387.762 3.25 1.625s1.392 2.052 1.625 3.25m-4.062-10.563c2.489.276 4.728 1.48 6.5 3.25 1.772 1.77 2.97 4.012 3.25 6.5m-.001 12.15v4.403c.007 1.683-1.507 3.089-3.206 2.936-14.668.011-26.043-11.47-26.031-26.04-.154-1.69 1.245-3.197 2.926-3.199h4.412a2.945 2.945 0 011.947.71c1.539 1.32 2.528 5.803 2.148 7.584-.298 1.392-1.7 2.365-2.653 3.316a23.508 23.508 0 008.824 8.807c.953-.951 1.928-2.351 3.322-2.648 1.788-.38 6.3.61 7.615 2.16.466.55.714 1.25.696 1.97z" stroke="#191614" stroke-width="2.6" stroke-linecap="round" stroke-linejoin="round"/></svg>