<svg width="40" height="40" fill="none" xmlns="http://www.w3.org/2000/svg"><path d="M25 9c1.474.288 2.938.938 4 2 1.062 1.062 1.712 2.526 2 4M26 2c3.063.34 5.82 1.822 8 4 2.18 2.178 3.656 4.937 4 8m-.001 14.953v5.42c.008 2.072-1.855 3.802-3.946 3.613C16 38 2 23.87 2.014 5.938 1.826 3.858 3.547 2.002 5.616 2h5.43a3.625 3.625 0 012.397.874c1.893 1.625 3.111 7.141 2.643 9.335-.366 1.712-2.092 2.91-3.265 4.08a28.933 28.933 0 0010.86 10.84c1.174-1.171 2.374-2.894 4.09-3.259 2.2-.468 7.752.751 9.37 2.658.575.676.88 1.54.858 2.425z" stroke="#191614" stroke-width="2.6" stroke-linecap="round" stroke-linejoin="round"/></svg>