 <svg aria-hidden="true" style="position: absolute; width: 0; height: 0; overflow: hidden;" version="1.1" xmlns="http://www.w3.org/2000/svg" xmlns:xlink="http://www.w3.org/1999/xlink">
    <defs>
        <symbol id="icon-burger-menu" viewBox="0 0 58 32">
            <path stroke="#fff" style="stroke: var(--color1, #fff)" stroke-linejoin="miter" stroke-linecap="round" stroke-miterlimit="4" stroke-width="7.5294" d="M3.765 3.765h50.824"></path>
            <path stroke="#fff" style="stroke: var(--color1, #fff)" stroke-linejoin="miter" stroke-linecap="round" stroke-miterlimit="4" stroke-width="7.5294" d="M18.824 28.235h35.765"></path>
        </symbol>

        <symbol id="icon-shopping-bag" viewBox="0 0 32 32">
            <path d="M16 2.667c-2.846 0-5.161 2.32-5.161 5.173v1.708h-3.917c-0.625 0-1.153 0.45-1.255 1.072l-2.982 18.082c-0.062 0.374 0.043 0.754 0.288 1.043 0.242 0.285 0.594 0.448 0.966 0.448h24.121c0.372 0 0.725-0.163 0.967-0.448 0.245-0.289 0.35-0.669 0.288-1.043l-2.982-18.083c-0.102-0.621-0.631-1.071-1.255-1.071h-3.917v-1.708c0-2.853-2.315-5.173-5.161-5.173zM25.078 10.409c0.201 0 0.372 0.148 0.407 0.351l2.982 18.082c0.021 0.126-0.015 0.251-0.095 0.347-0.046 0.055-0.148 0.145-0.311 0.145h-24.122c-0.163 0-0.265-0.090-0.311-0.145-0.081-0.095-0.116-0.222-0.095-0.347l2.983-18.081c0.034-0.204 0.205-0.352 0.407-0.352h3.917v3.871c0 0.237 0.193 0.43 0.43 0.43s0.43-0.193 0.43-0.43v-6.44c0-2.378 1.929-4.313 4.301-4.313s4.301 1.935 4.301 4.313v6.44c0 0.237 0.193 0.43 0.43 0.43s0.43-0.193 0.43-0.43v-3.871h3.917z"></path>
            <path d="M18.581 9.548h-5.161c-0.237 0-0.43 0.193-0.43 0.43s0.193 0.43 0.43 0.43h5.161c0.237 0 0.43-0.193 0.43-0.43s-0.193-0.43-0.43-0.43z"></path>
        </symbol>
        
        <symbol id="icon-search" viewBox="0 0 32 32">
            <path d="M0 13.317c0 7.345 5.975 13.314 13.314 13.314 3.381 0 6.473-1.271 8.826-3.355l8.485 8.485c0.157 0.157 0.36 0.236 0.57 0.236s0.413-0.079 0.57-0.236c0.315-0.314 0.315-0.819 0-1.134l-8.491-8.485c2.084-2.352 3.355-5.438 3.355-8.826 0-7.345-5.975-13.314-13.314-13.314s-13.314 5.969-13.314 13.314zM25.022 13.317c0 6.454-5.255 11.708-11.708 11.708s-11.708-5.255-11.708-11.708 5.255-11.708 11.708-11.708 11.708 5.248 11.708 11.708z"></path>
        </symbol>

        <symbol id="icon-drop" viewBox="0 0 12 6">
            <path d="M6 6L0.803848 0.75L11.1962 0.749999L6 6Z" fill="white"/>
        </symbol>
    </defs>
</svg>
