<svg aria-hidden="true" style="position:absolute;width:0;height:0" xmlns="http://www.w3.org/2000/svg" overflow="hidden"><defs><symbol id="icon-burger-menu" viewBox="0 0 58 32"><path stroke="var(--color1, #fff)" stroke-linecap="round" stroke-width="7.529" d="M3.765 3.765h50.824m-35.765 24.47h35.765"/></symbol><symbol id="icon-shopping-bag" viewBox="0 0 32 32"><path d="M16 2.667c-2.846 0-5.161 2.32-5.161 5.173v1.708H6.922a1.27 1.27 0 00-1.255 1.072L2.685 28.702c-.062.374.043.754.288 1.043.242.285.594.448.966.448H28.06c.372 0 .725-.163.967-.448.245-.289.35-.669.288-1.043l-2.982-18.083a1.27 1.27 0 00-1.255-1.071h-3.917V7.84c0-2.853-2.315-5.173-5.161-5.173zm9.078 7.742c.201 0 .372.148.407.351l2.982 18.082a.43.43 0 01-.095.347.402.402 0 01-.311.145H3.939a.402.402 0 01-.311-.145.426.426 0 01-.095-.347l2.983-18.081a.415.415 0 01.407-.352h3.917v3.871a.43.43 0 00.86 0V7.84c0-2.378 1.929-4.313 4.301-4.313s4.301 1.935 4.301 4.313v6.44a.43.43 0 00.86 0v-3.871h3.917z"/><path d="M18.581 9.548H13.42a.43.43 0 000 .86h5.161a.43.43 0 000-.86z"/></symbol><symbol id="icon-search" viewBox="0 0 32 32"><path d="M0 13.317c0 7.345 5.975 13.314 13.314 13.314 3.381 0 6.473-1.271 8.826-3.355l8.485 8.485c.157.157.36.236.57.236s.413-.079.57-.236a.799.799 0 000-1.134l-8.491-8.485a13.261 13.261 0 003.355-8.826c0-7.345-5.975-13.314-13.314-13.314S.001 5.971.001 13.316zm25.022 0c0 6.454-5.255 11.708-11.708 11.708S1.606 19.77 1.606 13.317 6.861 1.609 13.314 1.609s11.708 5.248 11.708 11.708z"/></symbol><symbol id="icon-drop" viewBox="0 0 12 6"><path d="M6 6L.804.75h10.392L6 6z" fill="#fff"/></symbol></defs></svg>