<svg width="32" height="32" viewBox="0 0 32 32" fill="none" xmlns="http://www.w3.org/2000/svg">
<path d="M21.3335 20.2667V22.5167L22.5335 23.8667M12.0002 14.6667H5.3335M26.6668 12V9.33333C26.6668 7.86057 25.4729 6.66667 24.0002 6.66667H8.00016C6.5274 6.66667 5.3335 7.86057 5.3335 9.33333V25.3333C5.3335 26.8061 6.5274 28 8.00016 28H12.0002M20.0002 4V9.33333M12.0002 4V9.33333M27.3335 22.6667C27.3335 25.9804 24.6472 28.6667 21.3335 28.6667C18.0198 28.6667 15.3335 25.9804 15.3335 22.6667C15.3335 19.353 18.0198 16.6667 21.3335 16.6667C24.6472 16.6667 27.3335 19.353 27.3335 22.6667Z" stroke="white" stroke-width="1.5" stroke-linecap="round" stroke-linejoin="round"/>
</svg>
