<svg width="214" height="175" viewBox="0 0 214 175" fill="none" xmlns="http://www.w3.org/2000/svg">
<path d="M170.654 61.5861C174.302 51.557 176.915 39.6067 177.966 25.3668C177.966 25.3668 148.797 32.1731 127.339 51.7844C125.519 36.8936 119.337 19.5564 105.757 0.0078125C105.757 0.0078125 87.4531 23.5319 83.0675 52.1686C61.5788 32.2594 32.0251 25.3668 32.0251 25.3668C33.0764 39.6067 35.6967 51.557 39.337 61.5861C19.4253 59.5238 2.94204 62.8642 2.94204 62.8642C45.1426 139.498 104.995 113.496 104.995 113.496C104.964 113.371 104.933 113.253 104.901 113.135C104.956 113.182 105.003 113.229 105.058 113.269C105.043 113.347 105.019 113.418 104.995 113.496C104.995 113.496 105.199 113.582 105.592 113.739C105.647 113.786 105.702 113.841 105.757 113.888C105.757 113.888 105.78 113.865 105.819 113.833C113.155 116.601 167.751 134.229 207.049 62.8721C207.049 62.8721 190.566 59.5317 170.654 61.5939V61.5861ZM168.442 36.7838C167.704 46.8051 165.931 55.313 163.475 62.5584C150.617 64.7305 137.028 69.4275 125.896 78.7979C127.324 72.8698 128.132 66.236 127.896 58.9279C144.254 42.4296 168.442 36.776 168.442 36.776V36.7838ZM113.265 91.7911C113.586 81.3777 117.07 72.7679 122.153 65.695C121.29 77.0179 117.187 85.8159 113.265 91.7911ZM160.965 69.004C148.883 96.2842 126.241 102.15 117.642 103.404C125.252 80.3819 143.995 71.8034 160.965 69.004ZM122.153 56.9597C112.166 67.8827 104.901 82.1619 104.995 100.534C104.995 100.534 104.995 100.534 104.988 100.534C105.082 82.2716 97.8954 68.0631 88.0023 57.1636C90.4736 34.2432 105.537 14.8751 105.537 14.8751C116.709 30.9655 121.275 45.0722 122.153 56.9675V56.9597ZM87.7041 65.5225C92.8037 72.5719 96.3263 81.1582 96.7029 91.5401C90.5991 83.1734 88.0572 74.2342 87.7041 65.5225ZM41.5337 36.776C41.5337 36.776 65.9252 42.4767 82.2829 59.1317C81.8593 65.4519 82.2123 71.9445 83.6402 78.4215C72.5938 69.2942 59.186 64.6913 46.4999 62.5506C44.0364 55.3052 42.2712 46.7894 41.5337 36.776ZM92.333 103.396C83.7344 102.142 61.1003 96.2685 49.0104 68.9962C65.9801 71.7956 84.7229 80.374 92.333 103.396ZM16.3499 69.2785C16.3499 69.2785 27.7807 66.9574 41.9731 68.1336C53.2941 93.5632 71.5739 104.863 85.3113 109.873C70.7815 112.555 39.9254 112.085 16.3577 69.2785H16.3499ZM124.672 109.873C138.409 104.855 156.681 93.5554 168.01 68.1336C182.202 66.9574 193.633 69.2785 193.633 69.2785C170.058 112.085 139.209 112.555 124.68 109.873H124.672Z" fill="#C7A78A"/>
<path d="M0 132.904H6.01745V149.331H16.5303V154.601H0V132.904Z" fill="white"/>
<path d="M17.1187 143.811V143.748C17.1187 137.514 22.1398 132.464 28.8398 132.464C35.5398 132.464 40.506 137.459 40.506 143.685V143.748C40.506 149.982 35.4849 155.032 28.7849 155.032C22.0849 155.032 17.1187 150.037 17.1187 143.811ZM34.363 143.811V143.748C34.363 140.619 32.0957 137.891 28.7771 137.891C25.4584 137.891 23.2853 140.557 23.2853 143.685V143.748C23.2853 146.877 25.5526 149.606 28.8398 149.606C32.1271 149.606 34.363 146.94 34.363 143.811Z" fill="white"/>
<path d="M48.0062 138.173H41.4945V132.904H60.5354V138.173H54.0237V154.601H48.0062V138.173Z" fill="white"/>
<path d="M62.8969 145.089V132.904H69.0085V144.964C69.0085 148.092 70.5933 149.582 73.0097 149.582C75.426 149.582 77.0108 148.155 77.0108 145.12V132.904H83.1224V144.932C83.1224 151.935 79.1213 155.008 72.9469 155.008C66.7725 155.008 62.8969 151.88 62.8969 145.089Z" fill="white"/>
<path d="M85.0367 151.378L88.3867 147.379C90.5285 149.08 92.9135 149.982 95.4241 149.982C97.0402 149.982 97.9032 149.425 97.9032 148.492V148.429C97.9032 147.528 97.1893 147.034 94.2394 146.351C89.6184 145.301 86.0488 143.999 86.0488 139.529V139.467C86.0488 135.436 89.2419 132.519 94.4512 132.519C98.1464 132.519 101.026 133.515 103.387 135.405L100.382 139.655C98.3975 138.259 96.2243 137.514 94.3022 137.514C92.8429 137.514 92.129 138.134 92.129 138.91V138.973C92.129 139.961 92.8743 140.4 95.8791 141.082C100.877 142.164 103.976 143.779 103.976 147.841V147.904C103.976 152.334 100.469 154.969 95.1965 154.969C91.3523 154.969 87.6885 153.762 85.021 151.37L85.0367 151.378Z" fill="white"/>
<path d="M114.747 143.811V143.748C114.747 137.428 119.714 132.464 126.437 132.464C130.25 132.464 132.949 133.641 135.248 135.624L131.709 139.874C130.156 138.573 128.61 137.828 126.468 137.828C123.338 137.828 120.914 140.463 120.914 143.779V143.842C120.914 147.347 123.362 149.857 126.806 149.857C128.265 149.857 129.379 149.543 130.281 148.955V146.32H125.998V141.921H135.985V151.684C133.694 153.573 130.493 155.032 126.555 155.032C119.792 155.032 114.74 150.382 114.74 143.811H114.747Z" fill="white"/>
<path d="M139.343 132.904H145.36V149.331H155.873V154.601H139.343V132.904Z" fill="white"/>
<path d="M156.462 143.811V143.748C156.462 137.514 161.49 132.464 168.191 132.464C174.891 132.464 179.857 137.459 179.857 143.685V143.748C179.857 149.982 174.828 155.032 168.136 155.032C161.443 155.032 156.469 150.037 156.469 143.811H156.462ZM173.706 143.811V143.748C173.706 140.619 171.439 137.891 168.12 137.891C164.801 137.891 162.628 140.557 162.628 143.685V143.748C162.628 146.877 164.895 149.606 168.183 149.606C171.47 149.606 173.706 146.94 173.706 143.811Z" fill="white"/>
<path d="M180.28 132.904H186.643L190.424 145.458L194.614 132.841H199.792L203.981 145.458L207.763 132.904H214L206.743 154.757H201.502L197.124 142.266L192.778 154.757H187.537L180.28 132.904Z" fill="white"/>
<path d="M6.33911 167.28H1.87506V169.907H5.86054V170.667H1.87506V173.875H1.04344V166.511H6.33911V167.28Z" fill="white"/>
<path d="M12.639 166.511V173.875H11.8074V166.511H12.639Z" fill="white"/>
<path d="M24.007 166.511H24.8151V173.875H24.1483L19.3939 167.837V173.875H18.5858V166.511H19.3625L24.007 172.416V166.511Z" fill="white"/>
<path d="M36.8736 171.64C36.6853 172.095 36.4185 172.487 36.0655 172.816C35.7203 173.145 35.3045 173.404 34.8259 173.592C34.3473 173.78 33.8138 173.875 33.2411 173.875H30.6835V166.511H33.2411C33.8138 166.511 34.3473 166.606 34.8259 166.794C35.3045 166.982 35.7203 167.241 36.0655 167.57C36.4107 167.899 36.6774 168.291 36.8736 168.738C37.0618 169.185 37.156 169.672 37.156 170.189C37.156 170.707 37.0618 171.193 36.8736 171.648V171.64ZM36.0812 169.06C35.9399 168.699 35.736 168.393 35.4692 168.127C35.2025 167.86 34.8887 167.656 34.5042 167.507C34.1276 167.358 33.704 167.28 33.2411 167.28H31.5151V173.106H33.2411C33.704 173.106 34.1276 173.035 34.5042 172.886C34.8808 172.738 35.2025 172.534 35.4692 172.267C35.7281 172.008 35.9321 171.695 36.0812 171.35C36.2224 170.997 36.293 170.62 36.293 170.205C36.293 169.789 36.2224 169.413 36.0812 169.06Z" fill="white"/>
<path d="M52.7919 173.875H51.9603V170.958L48.9006 166.511H49.9127L52.3918 170.197L54.8945 166.511H55.8595L52.7998 170.95V173.875H52.7919Z" fill="white"/>
<path d="M67.2589 171.64C67.0785 172.102 66.8196 172.502 66.4901 172.855C66.1606 173.208 65.7605 173.482 65.2976 173.694C64.8347 173.906 64.3247 174.008 63.7599 174.008C63.195 174.008 62.685 173.906 62.23 173.702C61.7671 173.498 61.3749 173.224 61.0454 172.879C60.7158 172.534 60.4648 172.126 60.2843 171.671C60.1039 171.216 60.0176 170.722 60.0176 170.213C60.0176 169.703 60.1117 169.217 60.2922 168.754C60.4726 168.299 60.7315 167.892 61.061 167.539C61.3906 167.186 61.7907 166.911 62.2535 166.7C62.7164 166.496 63.2264 166.386 63.7913 166.386C64.3561 166.386 64.8661 166.488 65.3211 166.692C65.784 166.896 66.1763 167.17 66.5058 167.515C66.8353 167.86 67.0863 168.268 67.2668 168.723C67.4472 169.178 67.5335 169.672 67.5335 170.181C67.5335 170.691 67.4394 171.177 67.2589 171.64ZM66.4509 169.013C66.3096 168.644 66.1057 168.315 65.8468 168.048C65.5879 167.774 65.2819 167.554 64.9288 167.398C64.5758 167.233 64.1835 167.154 63.7677 167.154C63.3519 167.154 62.9596 167.233 62.6066 167.39C62.2536 167.547 61.9476 167.766 61.6965 168.041C61.4455 168.315 61.2415 168.636 61.1003 169.005C60.9591 169.374 60.8884 169.766 60.8884 170.189C60.8884 170.612 60.9591 171.005 61.1003 171.381C61.2415 171.749 61.4455 172.071 61.7044 172.345C61.9633 172.62 62.2692 172.839 62.6223 172.996C62.9753 173.161 63.3676 173.239 63.7834 173.239C64.1992 173.239 64.5915 173.161 64.9445 173.004C65.2976 172.847 65.6036 172.628 65.8546 172.353C66.1057 172.079 66.3018 171.757 66.4509 171.389C66.5921 171.02 66.6705 170.628 66.6705 170.205C66.6705 169.781 66.5999 169.389 66.4509 169.013Z" fill="white"/>
<path d="M79.0977 170.73C79.0977 171.271 79.0271 171.742 78.878 172.149C78.729 172.557 78.525 172.894 78.2504 173.169C77.9836 173.443 77.6541 173.647 77.2854 173.78C76.9088 173.914 76.493 173.984 76.0301 173.984C75.5673 173.984 75.1593 173.914 74.7827 173.78C74.4061 173.647 74.0845 173.443 73.8177 173.169C73.551 172.902 73.3391 172.565 73.1901 172.165C73.041 171.765 72.9704 171.303 72.9704 170.785V166.504H73.802V170.73C73.802 171.53 73.9982 172.142 74.3983 172.573C74.7984 173.004 75.3476 173.216 76.0537 173.216C76.7598 173.216 77.2776 173.012 77.6777 172.604C78.0778 172.196 78.2739 171.593 78.2739 170.785V166.504H79.1055V170.722L79.0977 170.73Z" fill="white"/>
<path d="M89.9322 173.875L87.7983 171.012H85.6957V173.875H84.8641V166.511H88.0336C88.4416 166.511 88.8103 166.566 89.132 166.668C89.4615 166.77 89.7361 166.919 89.9715 167.115C90.2068 167.311 90.3794 167.539 90.505 167.813C90.6305 168.08 90.6933 168.386 90.6933 168.715C90.6933 169.021 90.6462 169.303 90.5442 169.538C90.4422 169.781 90.3088 169.993 90.1284 170.173C89.9479 170.354 89.7361 170.503 89.4929 170.62C89.2497 170.738 88.9829 170.824 88.6927 170.871L90.9522 173.875H89.9322ZM89.3595 167.664C89.03 167.405 88.5671 167.28 87.963 167.28H85.68V170.275H87.9473C88.2219 170.275 88.473 170.244 88.7084 170.173C88.9437 170.103 89.1399 170.001 89.3125 169.875C89.4772 169.742 89.6106 169.585 89.7047 169.397C89.7989 169.209 89.8459 168.989 89.8459 168.754C89.8459 168.291 89.6812 167.931 89.3517 167.672L89.3595 167.664Z" fill="white"/>
<path d="M104.109 166.511V173.875H103.277V166.511H104.109Z" fill="white"/>
<path d="M115.477 166.511H116.285V173.875H115.626L110.872 167.837V173.875H110.064V166.511H110.84L115.485 172.416V166.511H115.477Z" fill="white"/>
<path d="M127.575 166.511H128.383V173.875H127.724L122.969 167.837V173.875H122.161V166.511H122.938L127.583 172.416V166.511H127.575Z" fill="white"/>
<path d="M139.586 167.264H135.091V169.781H139.107V170.542H135.091V173.122H139.633V173.882H134.259V166.519H139.586V167.28V167.264Z" fill="white"/>
<path d="M150.17 173.875L148.036 171.012H145.933V173.875H145.101V166.511H148.271C148.679 166.511 149.048 166.566 149.369 166.668C149.699 166.77 149.973 166.919 150.209 167.115C150.444 167.311 150.617 167.539 150.742 167.813C150.868 168.08 150.931 168.386 150.931 168.715C150.931 169.021 150.883 169.303 150.781 169.538C150.679 169.781 150.546 169.993 150.366 170.173C150.185 170.354 149.973 170.503 149.73 170.62C149.487 170.738 149.22 170.824 148.93 170.871L151.189 173.875H150.17ZM149.597 167.664C149.267 167.405 148.804 167.28 148.2 167.28H145.917V170.275H148.185C148.459 170.275 148.71 170.244 148.946 170.173C149.181 170.103 149.377 170.001 149.55 169.875C149.714 169.742 149.848 169.585 149.942 169.397C150.036 169.209 150.083 168.989 150.083 168.754C150.083 168.291 149.918 167.931 149.589 167.672L149.597 167.664Z" fill="white"/>
<path d="M163.444 166.511H164.276V173.106H168.426V173.875H163.452V166.511H163.444Z" fill="white"/>
<path d="M174.655 166.511V173.875H173.824V166.511H174.655Z" fill="white"/>
<path d="M185.709 173.671C185.207 173.89 184.642 174 184.023 174C183.442 174 182.916 173.898 182.461 173.702C182.006 173.506 181.606 173.239 181.285 172.894C180.955 172.549 180.712 172.149 180.539 171.687C180.367 171.224 180.28 170.73 180.28 170.205C180.28 169.679 180.367 169.217 180.547 168.754C180.728 168.291 180.979 167.884 181.3 167.531C181.622 167.178 182.014 166.904 182.461 166.692C182.916 166.488 183.418 166.378 183.976 166.378C184.281 166.378 184.564 166.402 184.823 166.441C185.082 166.48 185.317 166.543 185.537 166.629C185.756 166.715 185.96 166.817 186.157 166.943C186.353 167.068 186.541 167.202 186.721 167.358L186.188 167.986C186.047 167.86 185.898 167.743 185.749 167.641C185.592 167.539 185.427 167.452 185.246 167.374C185.066 167.296 184.87 167.241 184.658 167.202C184.446 167.162 184.203 167.139 183.944 167.139C183.536 167.139 183.16 167.217 182.814 167.382C182.469 167.547 182.179 167.758 181.928 168.033C181.685 168.307 181.489 168.629 181.347 168.997C181.206 169.366 181.135 169.758 181.135 170.173C181.135 170.613 181.206 171.028 181.339 171.404C181.473 171.781 181.669 172.102 181.928 172.377C182.179 172.651 182.485 172.863 182.846 173.02C183.207 173.177 183.607 173.247 184.054 173.247C184.478 173.247 184.87 173.177 185.246 173.028C185.615 172.887 185.929 172.706 186.18 172.502V170.667H183.936V169.93H186.98V172.855C186.635 173.161 186.211 173.428 185.709 173.647V173.671Z" fill="white"/>
<path d="M193.468 170.558V173.875H192.637V166.511H193.468V169.781H197.721V166.511H198.552V173.875H197.721V170.558H193.468Z" fill="white"/>
<path d="M207.206 173.875H206.374V167.28H203.903V166.511H209.685V167.28H207.214V173.875H207.206Z" fill="white"/>
</svg>
