<svg width="155" height="127" viewBox="0 0 155 127" fill="none" xmlns="http://www.w3.org/2000/svg">
<path d="M123.605 44.5968C126.247 37.3344 128.139 28.6808 128.901 18.3691C128.901 18.3691 107.773 23.2978 92.2317 37.4991C90.9134 26.7161 86.4356 14.1615 76.5993 0.00567818C76.5993 0.00567818 63.3422 17.0404 60.1657 37.7773C44.6015 23.3603 23.1957 18.3691 23.1957 18.3691C23.9572 28.6808 25.8551 37.3344 28.4918 44.5968C14.0697 43.1035 2.13092 45.5224 2.13092 45.5224C32.6968 101.016 76.0481 82.1868 76.0481 82.1868C76.0254 82.0959 76.0027 82.0107 75.98 81.9256C76.0197 81.9596 76.0538 81.9937 76.0936 82.0221C76.0822 82.0789 76.0652 82.13 76.0481 82.1868C76.0481 82.1868 76.1959 82.2492 76.48 82.3628C76.5198 82.3969 76.5596 82.4366 76.5993 82.4707C76.5993 82.4707 76.6164 82.4536 76.6448 82.4309C81.9579 84.4353 121.502 97.2 149.965 45.5281C149.965 45.5281 138.027 43.1092 123.605 44.6025V44.5968ZM122.002 26.6366C121.468 33.8934 120.184 40.0543 118.405 45.301C109.092 46.8738 99.2496 50.2751 91.1862 57.0606C92.2204 52.7678 92.8057 47.964 92.6352 42.6719C104.483 30.7249 122.002 26.6309 122.002 26.6309V26.6366ZM82.0374 66.4694C82.2704 58.9287 84.7934 52.694 88.4756 47.5722C87.8506 55.7716 84.8787 62.1426 82.0374 66.4694ZM116.587 49.9685C107.836 69.723 91.4362 73.9704 85.2082 74.8789C90.7202 58.2076 104.296 51.9956 116.587 49.9685ZM88.4756 41.2467C81.2419 49.1565 75.98 59.4965 76.0481 72.8006C76.0481 72.8006 76.0481 72.8006 76.0425 72.8006C76.1107 59.576 70.9055 49.2871 63.74 41.3943C65.5299 24.7968 76.4402 10.7716 76.4402 10.7716C84.532 22.4233 87.8392 32.6385 88.4756 41.2524V41.2467ZM63.524 47.4473C67.2176 52.5521 69.769 58.7697 70.0418 66.2877C65.6209 60.229 63.7797 53.7558 63.524 47.4473ZM30.0829 26.6309C30.0829 26.6309 47.7496 30.759 59.5975 42.8196C59.2906 47.3962 59.5463 52.0978 60.5805 56.788C52.5797 50.1786 42.8684 46.8454 33.6798 45.2953C31.8956 40.0486 30.617 33.882 30.0829 26.6309ZM66.8767 74.8732C60.6487 73.9647 44.2549 69.7117 35.4982 49.9628C47.7893 51.9899 61.3647 58.2019 66.8767 74.8732ZM11.8422 50.1672C11.8422 50.1672 20.1215 48.4864 30.4011 49.3382C38.6008 67.7527 51.8409 75.935 61.7909 79.5634C51.267 81.5054 28.918 81.1647 11.8479 50.1672H11.8422ZM90.2997 79.5634C100.25 75.9293 113.484 67.747 121.69 49.3382C131.969 48.4864 140.248 50.1672 140.248 50.1672C123.173 81.1647 100.829 81.5054 90.3054 79.5634H90.2997Z" fill="#C7A78A"/>
<path d="M0 96.2404H4.35843V108.136H11.9729V111.952H0V96.2404Z" fill="white"/>
<path d="M12.3991 104.139V104.093C12.3991 99.5792 16.0359 95.9224 20.8887 95.9224C25.7415 95.9224 29.3385 99.5394 29.3385 104.048V104.093C29.3385 108.608 25.7017 112.264 20.8489 112.264C15.9961 112.264 12.3991 108.647 12.3991 104.139ZM24.8891 104.139V104.093C24.8891 101.828 23.2469 99.8517 20.8432 99.8517C18.4395 99.8517 16.8655 101.782 16.8655 104.048V104.093C16.8655 106.359 18.5077 108.335 20.8887 108.335C23.2696 108.335 24.8891 106.404 24.8891 104.139Z" fill="white"/>
<path d="M34.7709 100.056H30.0544V96.2404H43.8457V100.056H39.1293V111.952H34.7709V100.056Z" fill="white"/>
<path d="M45.5562 105.064V96.2404H49.9828V104.974C49.9828 107.239 51.1306 108.318 52.8808 108.318C54.631 108.318 55.7789 107.285 55.7789 105.087V96.2404H60.2055V104.951C60.2055 110.021 57.3074 112.247 52.8354 112.247C48.3633 112.247 45.5562 109.982 45.5562 105.064Z" fill="white"/>
<path d="M61.592 109.618L64.0184 106.722C65.5697 107.955 67.2972 108.608 69.1156 108.608C70.2861 108.608 70.9112 108.204 70.9112 107.529V107.483C70.9112 106.83 70.3941 106.473 68.2575 105.979C64.9106 105.218 62.325 104.275 62.325 101.038V100.993C62.325 98.0745 64.6378 95.9622 68.4109 95.9622C71.0874 95.9622 73.1728 96.6833 74.8832 98.0517L72.7069 101.129C71.2692 100.119 69.6952 99.5792 68.303 99.5792C67.246 99.5792 66.7289 100.028 66.7289 100.59V100.635C66.7289 101.351 67.2688 101.669 69.4451 102.163C73.0649 102.946 75.3094 104.116 75.3094 107.057V107.103C75.3094 110.311 72.7694 112.219 68.9508 112.219C66.1664 112.219 63.5127 111.344 61.5806 109.613L61.592 109.618Z" fill="white"/>
<path d="M83.1114 104.139V104.093C83.1114 99.5167 86.7084 95.9224 91.5783 95.9224C94.3399 95.9224 96.2947 96.7741 97.9597 98.2107L95.3969 101.288C94.2717 100.346 93.1523 99.8063 91.601 99.8063C89.3337 99.8063 87.5778 101.714 87.5778 104.116V104.162C87.5778 106.7 89.3508 108.517 91.8453 108.517C92.9023 108.517 93.7092 108.29 94.3627 107.864V105.956H91.2601V102.77H98.4938V109.84C96.8345 111.208 94.5161 112.264 91.6635 112.264C86.7652 112.264 83.1057 108.897 83.1057 104.139H83.1114Z" fill="white"/>
<path d="M100.926 96.2404H105.284V108.136H112.899V111.952H100.926V96.2404Z" fill="white"/>
<path d="M113.325 104.139V104.093C113.325 99.5792 116.967 95.9224 121.82 95.9224C126.673 95.9224 130.27 99.5394 130.27 104.048V104.093C130.27 108.608 126.628 112.264 121.78 112.264C116.933 112.264 113.331 108.647 113.331 104.139H113.325ZM125.815 104.139V104.093C125.815 101.828 124.173 99.8517 121.769 99.8517C119.365 99.8517 117.791 101.782 117.791 104.048V104.093C117.791 106.359 119.434 108.335 121.815 108.335C124.195 108.335 125.815 106.404 125.815 104.139Z" fill="white"/>
<path d="M130.577 96.2404H135.185L137.924 105.331L140.959 96.195H144.709L147.744 105.331L150.482 96.2404H155L149.744 112.066H145.948L142.777 103.02L139.629 112.066H135.833L130.577 96.2404Z" fill="white"/>
<path d="M4.59141 121.134H1.3581V123.036H4.24478V123.587H1.3581V125.909H0.755764V120.577H4.59141V121.134Z" fill="white"/>
<path d="M9.15442 120.577V125.909H8.55208V120.577H9.15442Z" fill="white"/>
<path d="M17.3883 120.577H17.9736V125.909H17.4906L14.047 121.537V125.909H13.4617V120.577H14.0243L17.3883 124.853V120.577Z" fill="white"/>
<path d="M26.7075 124.291C26.5711 124.62 26.3779 124.904 26.1222 125.143C25.8722 125.381 25.571 125.568 25.2244 125.705C24.8777 125.841 24.4913 125.909 24.0765 125.909H22.224V120.577H24.0765C24.4913 120.577 24.8777 120.645 25.2244 120.782C25.571 120.918 25.8722 121.105 26.1222 121.344C26.3722 121.582 26.5654 121.866 26.7075 122.19C26.8439 122.514 26.9121 122.866 26.9121 123.24C26.9121 123.615 26.8439 123.967 26.7075 124.297V124.291ZM26.1336 122.423C26.0313 122.162 25.8835 121.94 25.6903 121.747C25.4971 121.554 25.2698 121.406 24.9914 121.298C24.7186 121.191 24.4118 121.134 24.0765 121.134H22.8264V125.353H24.0765C24.4118 125.353 24.7186 125.302 24.9914 125.194C25.2641 125.086 25.4971 124.938 25.6903 124.745C25.8778 124.558 26.0256 124.331 26.1336 124.081C26.2358 123.825 26.287 123.553 26.287 123.252C26.287 122.951 26.2358 122.678 26.1336 122.423Z" fill="white"/>
<path d="M38.2372 125.909H37.6348V123.797L35.4187 120.577H36.1517L37.9474 123.246L39.7601 120.577H40.459L38.2428 123.791V125.909H38.2372Z" fill="white"/>
<path d="M48.7156 124.291C48.5849 124.626 48.3974 124.915 48.1587 125.171C47.92 125.427 47.6302 125.625 47.295 125.779C46.9597 125.932 46.5903 126.006 46.1812 126.006C45.7721 126.006 45.4027 125.932 45.0731 125.784C44.7379 125.637 44.4537 125.438 44.2151 125.188C43.9764 124.938 43.7946 124.643 43.6639 124.314C43.5332 123.984 43.4707 123.627 43.4707 123.257C43.4707 122.888 43.5389 122.536 43.6696 122.201C43.8003 121.872 43.9878 121.577 44.2265 121.321C44.4651 121.066 44.7549 120.867 45.0902 120.714C45.4254 120.566 45.7948 120.486 46.2039 120.486C46.6131 120.486 46.9824 120.56 47.312 120.708C47.6473 120.856 47.9314 121.054 48.1701 121.304C48.4087 121.554 48.5906 121.849 48.7213 122.179C48.852 122.508 48.9145 122.866 48.9145 123.235C48.9145 123.604 48.8463 123.956 48.7156 124.291ZM48.1303 122.389C48.028 122.122 47.8803 121.883 47.6927 121.69C47.5052 121.491 47.2836 121.332 47.0279 121.219C46.7722 121.1 46.4881 121.043 46.1869 121.043C45.8857 121.043 45.6016 121.1 45.3459 121.213C45.0902 121.327 44.8686 121.486 44.6867 121.685C44.5049 121.883 44.3571 122.116 44.2549 122.383C44.1526 122.65 44.1014 122.934 44.1014 123.24C44.1014 123.547 44.1526 123.831 44.2549 124.103C44.3571 124.37 44.5049 124.603 44.6924 124.802C44.8799 125.001 45.1015 125.16 45.3573 125.273C45.613 125.392 45.8971 125.449 46.1983 125.449C46.4994 125.449 46.7836 125.392 47.0393 125.279C47.295 125.165 47.5166 125.006 47.6984 124.808C47.8803 124.609 48.0223 124.376 48.1303 124.109C48.2326 123.842 48.2894 123.558 48.2894 123.252C48.2894 122.945 48.2383 122.661 48.1303 122.389Z" fill="white"/>
<path d="M57.2904 123.632C57.2904 124.024 57.2392 124.365 57.1313 124.66C57.0233 124.955 56.8756 125.199 56.6767 125.398C56.4835 125.597 56.2448 125.744 55.9777 125.841C55.705 125.938 55.4038 125.989 55.0686 125.989C54.7333 125.989 54.4378 125.938 54.165 125.841C53.8923 125.744 53.6593 125.597 53.4661 125.398C53.2729 125.205 53.1195 124.961 53.0115 124.671C52.9035 124.382 52.8524 124.047 52.8524 123.672V120.572H53.4547V123.632C53.4547 124.211 53.5968 124.654 53.8866 124.967C54.1764 125.279 54.5742 125.432 55.0856 125.432C55.597 125.432 55.9721 125.285 56.2619 124.989C56.5517 124.694 56.6937 124.257 56.6937 123.672V120.572H57.2961V123.627L57.2904 123.632Z" fill="white"/>
<path d="M65.1378 125.909L63.5922 123.837H62.0693V125.909H61.467V120.577H63.7627C64.0582 120.577 64.3253 120.617 64.5582 120.691C64.7969 120.765 64.9958 120.873 65.1663 121.015C65.3367 121.156 65.4617 121.321 65.5527 121.52C65.6436 121.713 65.689 121.934 65.689 122.173C65.689 122.394 65.6549 122.599 65.5811 122.769C65.5072 122.945 65.4106 123.098 65.2799 123.229C65.1492 123.36 64.9958 123.468 64.8196 123.553C64.6435 123.638 64.4503 123.7 64.24 123.734L65.8766 125.909H65.1378ZM64.723 121.412C64.4844 121.225 64.1491 121.134 63.7115 121.134H62.058V123.303H63.7002C63.8991 123.303 64.0809 123.28 64.2514 123.229C64.4219 123.178 64.5639 123.104 64.6889 123.013C64.8083 122.917 64.9049 122.803 64.973 122.667C65.0412 122.531 65.0753 122.372 65.0753 122.201C65.0753 121.866 64.956 121.605 64.7173 121.418L64.723 121.412Z" fill="white"/>
<path d="M75.406 120.577V125.909H74.8037V120.577H75.406Z" fill="white"/>
<path d="M83.6399 120.577H84.2252V125.909H83.7479L80.3043 121.537V125.909H79.719V120.577H80.2816L83.6456 124.853V120.577H83.6399Z" fill="white"/>
<path d="M92.4022 120.577H92.9875V125.909H92.5102L89.0666 121.537V125.909H88.4813V120.577H89.0439L92.4079 124.853V120.577H92.4022Z" fill="white"/>
<path d="M101.102 121.122H97.846V122.945H100.755V123.496H97.846V125.364H101.136V125.915H97.2437V120.583H101.102V121.134V121.122Z" fill="white"/>
<path d="M108.768 125.909L107.222 123.837H105.699V125.909H105.097V120.577H107.392C107.688 120.577 107.955 120.617 108.188 120.691C108.427 120.765 108.626 120.873 108.796 121.015C108.967 121.156 109.092 121.321 109.182 121.52C109.273 121.713 109.319 121.934 109.319 122.173C109.319 122.394 109.285 122.599 109.211 122.769C109.137 122.945 109.04 123.098 108.91 123.229C108.779 123.36 108.626 123.468 108.449 123.553C108.273 123.638 108.08 123.7 107.87 123.734L109.506 125.909H108.768ZM108.353 121.412C108.114 121.225 107.779 121.134 107.341 121.134H105.688V123.303H107.33C107.529 123.303 107.711 123.28 107.881 123.229C108.052 123.178 108.194 123.104 108.319 123.013C108.438 122.917 108.535 122.803 108.603 122.667C108.671 122.531 108.705 122.372 108.705 122.201C108.705 121.866 108.586 121.605 108.347 121.418L108.353 121.412Z" fill="white"/>
<path d="M118.382 120.577H118.985V125.353H121.991V125.909H118.388V120.577H118.382Z" fill="white"/>
<path d="M126.503 120.577V125.909H125.9V120.577H126.503Z" fill="white"/>
<path d="M134.509 125.762C134.145 125.921 133.736 126 133.287 126C132.867 126 132.486 125.926 132.157 125.784C131.827 125.642 131.537 125.449 131.304 125.199C131.066 124.95 130.889 124.66 130.764 124.325C130.639 123.99 130.577 123.632 130.577 123.252C130.577 122.871 130.639 122.536 130.77 122.201C130.901 121.866 131.083 121.571 131.316 121.315C131.549 121.06 131.833 120.861 132.157 120.708C132.486 120.56 132.85 120.481 133.253 120.481C133.475 120.481 133.679 120.498 133.867 120.526C134.055 120.555 134.225 120.6 134.384 120.662C134.543 120.725 134.691 120.799 134.833 120.89C134.975 120.98 135.111 121.077 135.242 121.191L134.856 121.645C134.753 121.554 134.646 121.469 134.538 121.395C134.424 121.321 134.305 121.259 134.174 121.202C134.043 121.145 133.901 121.105 133.748 121.077C133.594 121.049 133.418 121.032 133.231 121.032C132.935 121.032 132.662 121.088 132.412 121.208C132.162 121.327 131.952 121.48 131.77 121.679C131.594 121.878 131.452 122.11 131.35 122.377C131.247 122.644 131.196 122.928 131.196 123.229C131.196 123.547 131.247 123.848 131.344 124.121C131.441 124.393 131.583 124.626 131.77 124.825C131.952 125.023 132.174 125.177 132.435 125.29C132.696 125.404 132.986 125.455 133.31 125.455C133.617 125.455 133.901 125.404 134.174 125.296C134.441 125.194 134.668 125.063 134.85 124.915V123.587H133.225V123.053H135.43V125.171C135.18 125.392 134.873 125.585 134.509 125.744V125.762Z" fill="white"/>
<path d="M140.129 123.507V125.909H139.527V120.577H140.129V122.945H143.209V120.577H143.811V125.909H143.209V123.507H140.129Z" fill="white"/>
<path d="M150.079 125.909H149.477V121.134H147.687V120.577H151.875V121.134H150.085V125.909H150.079Z" fill="white"/>
</svg>
