<svg width="87" height="69" viewBox="0 0 87 69" fill="none" xmlns="http://www.w3.org/2000/svg">
<path d="M0 20C0 8.9543 8.95431 0 20 0H79.3333C83.5675 0 87 3.43248 87 7.66667C87 41.5401 59.5401 69 25.6667 69H0V20Z" fill="#9A816B"/>
<path d="M40.5624 23.5625C41.7603 23.7962 42.9494 24.3245 43.8124 25.1875C44.6754 26.0505 45.2037 27.2396 45.4374 28.4375M41.3749 17.875C43.8636 18.1515 46.1032 19.3555 47.8749 21.125C49.6466 22.8945 50.8453 25.1366 51.1249 27.625M51.124 39.7746V44.178C51.1309 45.8612 49.6173 47.2668 47.9179 47.1135C33.25 47.125 21.875 35.6444 21.8865 21.0749C21.7334 19.3845 23.1321 17.8767 24.8132 17.8751H29.2253C29.939 17.8681 30.631 18.1204 31.1721 18.5849C32.7107 19.9054 33.7003 24.3876 33.3196 26.1695C33.0223 27.5606 31.62 28.5339 30.6666 29.4854C32.7602 33.16 35.8088 36.2026 39.4908 38.2921C40.4442 37.3406 41.4194 35.941 42.8133 35.6444C44.6014 35.2638 49.1124 36.2548 50.4277 37.8041C50.8941 38.3534 51.1419 39.0547 51.124 39.7746Z" stroke="#191614" stroke-width="2.6" stroke-linecap="round" stroke-linejoin="round"/>
</svg>
