<svg width="40" height="40" viewBox="0 0 40 40" fill="none" xmlns="http://www.w3.org/2000/svg">
<path d="M25 9C26.4743 9.28765 27.9378 9.93784 29 11C30.0622 12.0622 30.7124 13.5257 31 15M26 2C29.0631 2.34028 31.8194 3.82214 34 6C36.1806 8.17786 37.6559 10.9374 38 14M37.9989 28.9533V34.3729C38.0073 36.4446 36.1445 38.1745 34.0529 37.9859C16.0001 38 2.00012 23.87 2.01425 5.93837C1.82587 3.85789 3.54727 2.00212 5.61634 2.00018H11.0466C11.9251 1.99155 12.7767 2.302 13.4428 2.87368C15.3364 4.49899 16.5544 10.0155 16.0857 12.2086C15.7199 13.9207 13.9939 15.1186 12.8205 16.2897C15.3973 20.8124 19.1494 24.5571 23.6811 27.1288C24.8545 25.9577 26.0547 24.2351 27.7703 23.87C29.971 23.4016 35.5231 24.6213 37.1419 26.5281C37.7159 27.2042 38.0209 28.0674 37.9989 28.9533Z" stroke="#191614" stroke-width="2.6" stroke-linecap="round" stroke-linejoin="round"/>
</svg>
