<svg width="13" height="13" viewBox="0 0 13 13" fill="none" xmlns="http://www.w3.org/2000/svg">
<path d="M11.3747 10.3927V8.92486C11.3807 8.68491 11.2981 8.45115 11.1426 8.26802C10.7042 7.7516 9.20049 7.42125 8.60445 7.54812C8.13982 7.64702 7.81475 8.11353 7.49695 8.4307C6.26963 7.73421 5.25343 6.72002 4.55555 5.49512C4.87335 5.17795 5.3408 4.85353 5.43989 4.38982C5.56681 3.79588 5.23693 2.30181 4.72408 1.86162C4.54368 1.70679 4.31304 1.62271 4.07512 1.62505H2.60442C2.04405 1.62557 1.57784 2.12818 1.62886 2.69164C1.62503 7.54812 5.4167 11.375 10.306 11.3712C10.8725 11.4223 11.377 10.9537 11.3747 10.3927Z" stroke="#191614" stroke-width="1.5" stroke-linecap="round" stroke-linejoin="round"/>
</svg>
