 <svg aria-hidden="true" style="position: absolute; width: 0; height: 0; overflow: hidden;" version="1.1" xmlns="http://www.w3.org/2000/svg" xmlns:xlink="http://www.w3.org/1999/xlink">
    <defs>
        <symbol id="icon-burger-menu" viewBox="0 0 58 32">
            <path stroke="#fff" style="stroke: var(--color1, #fff)" stroke-linejoin="miter" stroke-linecap="round" stroke-miterlimit="4" stroke-width="7.5294" d="M3.765 3.765h50.824"></path>
            <path stroke="#fff" style="stroke: var(--color1, #fff)" stroke-linejoin="miter" stroke-linecap="round" stroke-miterlimit="4" stroke-width="7.5294" d="M18.824 28.235h35.765"></path>
        </symbol>

        <symbol id="icon-shopping-bag" viewBox="-3.1 -3.1 37.20 37.20">
            <svg stroke-width="1.24">
                <path d="M15.5,0c-3.309,0-6,2.697-6,6.014V8H4.947C4.221,8,3.607,8.523,3.488,9.246l-3.467,21.02 c-0.072,0.435,0.05,0.877,0.335,1.213C0.637,31.81,1.046,32,1.479,32h28.041c0.433,0,0.843-0.19,1.124-0.521 c0.285-0.336,0.407-0.778,0.335-1.213L27.512,9.245C27.393,8.523,26.779,8,26.053,8H21.5V6.014C21.5,2.697,18.809,0,15.5,0z M26.053,9c0.234,0,0.433,0.172,0.473,0.408l3.467,21.02c0.024,0.146-0.017,0.292-0.111,0.403C29.829,30.895,29.71,31,29.521,31 H1.479c-0.19,0-0.308-0.105-0.362-0.169c-0.094-0.111-0.135-0.258-0.111-0.403L4.474,9.409C4.514,9.172,4.712,9,4.947,9H9.5v4.5 c0,0.276,0.224,0.5,0.5,0.5s0.5-0.224,0.5-0.5V6.014C10.5,3.249,12.743,1,15.5,1s5,2.249,5,5.014V13.5c0,0.276,0.224,0.5,0.5,0.5 s0.5-0.224,0.5-0.5V9H26.053z"></path> 
                <path d="M18.5,8h-6C12.224,8,12,8.224,12,8.5S12.224,9,12.5,9h6C18.776,9,19,8.776,19,8.5S18.776,8,18.5,8z"></path> 
            </svg>

        </symbol>

        <symbol id="icon-search" viewBox="0 0 32 32">
            <path d="M0 13.317c0 7.345 5.975 13.314 13.314 13.314 3.381 0 6.473-1.271 8.826-3.355l8.485 8.485c0.157 0.157 0.36 0.236 0.57 0.236s0.413-0.079 0.57-0.236c0.315-0.314 0.315-0.819 0-1.134l-8.491-8.485c2.084-2.352 3.355-5.438 3.355-8.826 0-7.345-5.975-13.314-13.314-13.314s-13.314 5.969-13.314 13.314zM25.022 13.317c0 6.454-5.255 11.708-11.708 11.708s-11.708-5.255-11.708-11.708 5.255-11.708 11.708-11.708 11.708 5.248 11.708 11.708z"></path>
        </symbol>

        <symbol id="icon-drop" viewBox="0 0 12 6">
            <path d="M6 6L0.803848 0.75L11.1962 0.749999L6 6Z" fill="white"/>
        </symbol>

        <symbol id="icon-play" viewBox="0 0 64 64">
            <circle opacity="0.75" cx="32" cy="32" r="31" stroke-width="2" fill="none"/>
            <path opacity="0.75" d="M44.5 29.4019C46.5 30.5566 46.5 33.4434 44.5 34.5981L28 44.1244C26 45.2791 23.5 43.8357 23.5 41.5263L23.5 22.4737C23.5 20.1643 26 18.7209 28 19.8756L44.5 29.4019Z"/>
        </symbol>

        <symbol id="icon-stars" viewBox="0 0 104 15">
            <path d="M7.5 0L9.18386 5.18237H14.6329L10.2245 8.38525L11.9084 13.5676L7.5 10.3647L3.09161 13.5676L4.77547 8.38525L0.367076 5.18237H5.81614L7.5 0Z" fill="#FFF84E"/>
            <path d="M31.5 0L33.1839 5.18237H38.6329L34.2245 8.38525L35.9084 13.5676L31.5 10.3647L27.0916 13.5676L28.7755 8.38525L24.3671 5.18237H29.8161L31.5 0Z" fill="#FFF84E"/>
            <path d="M55.5 0L57.1839 5.18237H62.6329L58.2245 8.38525L59.9084 13.5676L55.5 10.3647L51.0916 13.5676L52.7755 8.38525L48.3671 5.18237H53.8161L55.5 0Z" fill="#FFF84E"/>
            <path d="M79.5 0L81.1839 5.18237H86.6329L82.2245 8.38525L83.9084 13.5676L79.5 10.3647L75.0916 13.5676L76.7755 8.38525L72.3671 5.18237H77.8161L79.5 0Z" fill="#FFF84E"/>
            <path d="M103.5 0L103.5 5.18237V7.5L103.5 10.3647L99.0917 13.5676L100.776 8.38525L96.3672 5.18237H101.816L103.5 0Z" fill="#FFF84E"/>
        </symbol>

        <symbol id="icon-heading-left" viewBox="0 0 74 75" fill="none">
            <path d="M3 3L3 49C3 61.7026 13.2975 72 26 72H71.5" stroke="url(#paint0_linear_9_2)" stroke-width="5" stroke-linecap="round"/>
            <linearGradient id="paint0_linear_9_2" x1="2.5" y1="0.999999" x2="71.5" y2="72" gradientUnits="userSpaceOnUse">
            <stop stop-color="#55B000"/>
            <stop offset="0.500917" stop-color="white" stop-opacity="0.156606"/>
            <stop offset="1" stop-color="#50790B"/>
            </linearGradient>
        </symbol>

        <symbol id="icon-heading-right" viewBox="0 0 74 75" fill="none">
            <path d="M71.5 72L71.5 26C71.5 13.2974 61.2025 3 48.5 3L2.99999 3.00001" stroke="url(#paint0_linear_8_60)" stroke-width="5" stroke-linecap="round"/>
            <linearGradient id="paint0_linear_8_60" x1="72" y1="74" x2="3" y2="3" gradientUnits="userSpaceOnUse">
            <stop stop-color="#55B000"/>
            <stop offset="0.500917" stop-color="white" stop-opacity="0.156606"/>
            <stop offset="1" stop-color="#50790B"/>
            </linearGradient>
        </symbol>

        <symbol id="icon-right-arrow" viewBox="0 0 24 24" fill="none">
            <path d="M10 7L15 12L10 17" stroke-width="1.5" stroke-linecap="round" stroke-linejoin="round"></path> 
        </symbol>
    </defs>
</svg>
