<svg aria-hidden="true" style="position:absolute;width:0;height:0" xmlns="http://www.w3.org/2000/svg" xmlns:xlink="http://www.w3.org/1999/xlink" overflow="hidden"><defs><symbol id="icon-burger-menu" viewBox="0 0 58 32"><path stroke="var(--color1, #fff)" stroke-linecap="round" stroke-width="7.529" d="M3.765 3.765h50.824m-35.765 24.47h35.765"/></symbol><symbol id="icon-shopping-bag" viewBox="-3.1 -3.1 37.2 37.2"><svg stroke-width="1.24"><path d="M15.5 0c-3.309 0-6 2.697-6 6.014V8H4.947c-.726 0-1.34.523-1.459 1.246L.021 30.266c-.072.435.05.877.335 1.213.281.331.69.521 1.123.521H29.52c.433 0 .843-.19 1.124-.521.285-.336.407-.778.335-1.213L27.512 9.245A1.477 1.477 0 0026.053 8H21.5V6.014C21.5 2.697 18.809 0 15.5 0zm10.553 9c.234 0 .433.172.473.408l3.467 21.02a.496.496 0 01-.111.403.466.466 0 01-.361.169H1.479a.469.469 0 01-.362-.169.497.497 0 01-.111-.403L4.474 9.409A.482.482 0 014.947 9H9.5v4.5a.5.5 0 001 0V6.014C10.5 3.249 12.743 1 15.5 1s5 2.249 5 5.014V13.5a.5.5 0 001 0V9h4.553z"/><path d="M18.5 8h-6a.5.5 0 000 1h6a.5.5 0 000-1z"/></svg></symbol><symbol id="icon-search" viewBox="0 0 32 32"><path d="M0 13.317c0 7.345 5.975 13.314 13.314 13.314 3.381 0 6.473-1.271 8.826-3.355l8.485 8.485c.157.157.36.236.57.236s.413-.079.57-.236a.799.799 0 000-1.134l-8.491-8.485a13.261 13.261 0 003.355-8.826c0-7.345-5.975-13.314-13.314-13.314S.001 5.971.001 13.316zm25.022 0c0 6.454-5.255 11.708-11.708 11.708S1.606 19.77 1.606 13.317 6.861 1.609 13.314 1.609s11.708 5.248 11.708 11.708z"/></symbol><symbol id="icon-drop" viewBox="0 0 12 6"><path d="M6 6L.804.75h10.392L6 6z" fill="#fff"/></symbol><symbol id="icon-play" viewBox="0 0 64 64"><circle opacity=".75" cx="32" cy="32" r="31" stroke-width="2" fill="none"/><path opacity=".75" d="M44.5 29.402c2 1.155 2 4.041 0 5.196L28 44.124c-2 1.155-4.5-.288-4.5-2.598V22.474c0-2.31 2.5-3.753 4.5-2.598l16.5 9.526z"/></symbol><symbol id="icon-stars" viewBox="0 0 104 15"><path d="M7.5 0l1.684 5.182h5.449l-4.408 3.203 1.683 5.183L7.5 10.365l-4.408 3.203 1.683-5.183L.367 5.182h5.45L7.5 0zm24 0l1.684 5.182h5.449l-4.409 3.203 1.684 5.183-4.408-3.203-4.408 3.203 1.684-5.183-4.409-3.203h5.45L31.5 0zm24 0l1.684 5.182h5.449l-4.409 3.203 1.684 5.183-4.408-3.203-4.408 3.203 1.684-5.183-4.409-3.203h5.45L55.5 0zm24 0l1.684 5.182h5.449l-4.408 3.203 1.683 5.183-4.408-3.203-4.408 3.203 1.683-5.183-4.408-3.203h5.45L79.5 0zm24 0v10.365l-4.408 3.203 1.684-5.183-4.409-3.203h5.449L103.5 0z" fill="#FFF84E"/></symbol><symbol id="icon-heading-left" viewBox="0 0 74 75" fill="none"><path d="M3 3v46c0 12.703 10.297 23 23 23h45.5" stroke="url(#paint0_linear_9_2)" stroke-width="5" stroke-linecap="round"/><linearGradient id="paint0_linear_9_2" x1="2.5" y1="1" x2="71.5" y2="72" gradientUnits="userSpaceOnUse"><stop stop-color="#55B000"/><stop offset=".501" stop-color="#fff" stop-opacity=".157"/><stop offset="1" stop-color="#50790B"/></linearGradient></symbol><symbol id="icon-heading-right" viewBox="0 0 74 75" fill="none"><path d="M71.5 72V26c0-12.703-10.297-23-23-23H3" stroke="url(#paint0_linear_8_60)" stroke-width="5" stroke-linecap="round"/><linearGradient id="paint0_linear_8_60" x1="72" y1="74" x2="3" y2="3" gradientUnits="userSpaceOnUse"><stop stop-color="#55B000"/><stop offset=".501" stop-color="#fff" stop-opacity=".157"/><stop offset="1" stop-color="#50790B"/></linearGradient></symbol><symbol id="icon-right-arrow" viewBox="0 0 24 24" fill="none"><path d="M10 7l5 5-5 5" stroke-width="1.5" stroke-linecap="round" stroke-linejoin="round"/></symbol></defs></svg>